<?xml version="1.0" standalone="no"?>
<!DOCTYPE svg PUBLIC "-//W3C//DTD SVG 20010904//EN"
 "http://www.w3.org/TR/2001/REC-SVG-20010904/DTD/svg10.dtd">
<svg version="1.0" xmlns="http://www.w3.org/2000/svg"
 width="440.000000pt" height="440.000000pt" viewBox="0 0 440.000000 440.000000"
 preserveAspectRatio="xMidYMid meet">
<metadata>
Created by potrace 1.14, written by Peter Selinger 2001-2017
</metadata>
<g transform="translate(0.000000,440.000000) scale(0.100000,-0.100000)"
fill="#000000" stroke="none">
<path d="M2055 4249 c-104 -12 -420 -84 -500 -114 -142 -53 -398 -188 -486
-257 -20 -15 -42 -28 -48 -28 -6 0 -11 -4 -11 -8 0 -5 -21 -24 -47 -43 -67
-47 -143 -119 -263 -248 -118 -128 -307 -435 -363 -594 -9 -23 -27 -73 -41
-112 -27 -71 -60 -193 -71 -254 -3 -19 -8 -37 -10 -41 -2 -3 -7 -33 -10 -65
-4 -33 -9 -63 -12 -67 -2 -4 -4 -90 -4 -191 l-1 -183 51 -239 c29 -132 61
-260 72 -284 11 -24 18 -50 15 -57 -7 -19 -4 -18 62 12 55 25 57 25 105 10 27
-9 58 -16 68 -16 26 0 261 117 277 138 6 9 10 23 8 31 -2 9 -7 33 -11 53 -6
36 -4 38 37 58 61 29 84 27 97 -12 21 -67 36 -161 26 -165 -6 -2 -41 -20 -80
-41 -61 -32 -70 -41 -73 -67 -1 -17 6 -44 17 -61 17 -29 29 -34 165 -67 80
-21 161 -37 180 -37 41 0 108 28 272 113 l119 62 -3 34 c-9 82 -9 82 -214 132
-81 19 -98 27 -98 42 0 11 5 17 13 15 6 -3 84 -22 173 -43 l161 -39 12 -43
c13 -49 23 -55 136 -80 88 -19 108 -36 40 -32 -27 2 -49 0 -47 -4 1 -4 2 -13
2 -20 0 -7 16 -36 34 -65 l35 -52 -27 -18 c-14 -9 -42 -33 -61 -52 l-36 -35
51 -3 50 -3 19 -89 c10 -50 23 -94 29 -98 14 -12 138 -42 169 -42 13 0 68 20
123 45 73 32 100 49 102 64 2 12 -6 61 -18 109 -20 83 -24 90 -56 105 -19 9
-34 20 -34 24 0 5 17 16 38 26 38 18 39 18 158 -13 181 -48 185 -47 352 43 78
43 187 104 243 137 55 33 105 60 110 60 20 0 106 34 131 51 26 19 28 19 170
-12 79 -17 252 -52 386 -79 134 -27 246 -50 248 -53 3 -3 -21 -17 -53 -32 -85
-40 -575 -260 -823 -370 -30 -13 -93 -42 -140 -63 -129 -60 -178 -82 -387
-171 l-192 -83 -218 62 c-120 34 -335 95 -478 135 -143 41 -339 96 -435 123
-96 28 -363 104 -593 171 -229 67 -427 121 -438 121 -14 0 -19 -5 -17 -17 3
-16 56 -33 438 -139 69 -19 135 -42 147 -50 12 -7 33 -14 46 -14 14 0 69 -13
123 -29 55 -16 212 -61 349 -100 138 -38 372 -104 520 -146 149 -43 326 -92
394 -110 68 -19 129 -39 134 -44 16 -16 -21 -14 -79 4 -153 45 -224 61 -228
51 -2 -7 -9 -5 -17 6 -8 9 -30 18 -49 21 -19 3 -89 22 -155 42 -66 20 -145 43
-175 52 -30 8 -75 22 -98 29 -24 8 -56 16 -71 17 -15 2 -31 6 -36 9 -22 13
-321 98 -433 122 -29 7 -50 15 -46 18 3 4 -2 7 -12 6 -11 0 -57 12 -104 26
-47 15 -125 38 -175 52 -49 14 -112 32 -140 40 -27 8 -72 21 -100 29 -27 7
-90 26 -138 43 -87 29 -89 29 -83 8 3 -11 6 -29 6 -38 0 -22 65 -51 93 -42 11
4 17 2 14 -3 -4 -6 18 -16 49 -22 59 -14 85 -33 125 -96 69 -106 285 -343 383
-420 21 -16 52 -42 69 -58 17 -15 35 -27 40 -27 4 0 19 -12 32 -26 24 -26 25
-30 25 -195 0 -105 4 -177 11 -193 19 -41 64 -50 289 -61 287 -14 596 -7 865
21 17 1 55 5 86 8 71 8 600 120 694 147 93 28 156 49 177 60 10 5 26 9 36 9
10 0 22 4 28 9 5 5 36 18 70 29 83 28 255 97 334 134 132 61 445 218 461 230
34 27 51 91 31 113 -5 6 -16 28 -24 50 -9 22 -27 65 -41 95 -14 30 -35 78 -47
107 l-22 51 50 85 c105 177 179 373 226 597 30 142 37 216 37 381 1 160 -1
174 -46 385 -25 120 -50 228 -55 239 -4 11 -23 56 -40 100 -71 179 -197 389
-319 535 -92 109 -296 303 -338 323 -13 6 -23 13 -23 18 0 20 -289 186 -425
244 -150 63 -414 132 -580 150 -96 10 -364 13 -440 4z m243 -100 c12 0 9 -4
-8 -12 -23 -10 -22 -11 25 -16 l50 -6 -57 -13 c-61 -14 -80 -11 -73 13 3 8 7
22 10 31 3 10 11 14 21 10 9 -3 23 -6 32 -7z m-132 -114 c13 -60 23 -116 24
-122 0 -7 -20 -18 -45 -24 -73 -18 -67 -32 11 -26 78 7 76 5 -18 -21 -74 -21
-90 -16 -82 28 5 22 -15 136 -42 247 -5 20 -2 22 48 26 29 2 59 3 67 3 10 -1
21 -35 37 -111z m469 75 c19 -7 25 -21 36 -80 12 -69 14 -72 53 -92 23 -11 51
-29 63 -41 19 -16 25 -18 38 -7 8 7 15 19 15 26 0 8 10 14 25 14 24 0 24 -1
-12 -38 l-38 -39 -36 28 c-50 39 -81 49 -147 49 -67 -1 -119 -18 -167 -54 -19
-15 -59 -34 -88 -43 -91 -26 -165 -73 -231 -144 -100 -108 -151 -220 -181
-398 -18 -104 -33 -134 -76 -153 -34 -15 -35 -41 -1 -46 18 -3 21 -8 17 -23
-5 -16 3 -24 48 -44 47 -20 57 -30 68 -62 6 -20 33 -60 59 -88 40 -42 52 -65
80 -153 31 -98 36 -106 88 -150 39 -34 62 -64 82 -108 15 -33 42 -74 59 -91
l32 -29 -21 -56 c-11 -30 -18 -62 -14 -71 3 -9 -2 -37 -12 -63 l-18 -46 -163
-79 c-159 -77 -165 -79 -238 -79 -41 0 -75 2 -75 4 0 20 -153 713 -159 719 -4
4 -54 16 -112 27 -175 34 -464 87 -654 120 -99 17 -215 38 -259 45 l-78 14
-75 -41 c-41 -22 -77 -46 -79 -53 -5 -12 11 -92 121 -614 30 -145 53 -266 51
-269 -3 -2 -13 -2 -22 2 -11 4 -14 12 -9 24 4 9 7 24 7 32 -1 16 -115 565
-151 727 -12 51 -21 97 -21 103 0 5 29 29 65 51 57 37 65 46 65 74 0 17 6 40
14 50 13 17 14 16 21 -23 10 -61 26 -52 24 13 -1 33 3 61 10 68 20 20 32 -12
28 -74 l-5 -55 72 -13 c39 -6 83 -14 98 -17 27 -5 28 -4 28 34 0 24 7 49 19
63 l19 24 7 -38 c4 -20 5 -49 2 -63 -6 -32 6 -37 138 -58 93 -15 99 -14 111 2
8 12 27 18 61 20 47 2 50 0 64 -30 10 -23 24 -35 47 -42 18 -5 35 -7 37 -4 5
5 -57 318 -70 349 -8 21 12 35 61 43 28 4 45 2 52 -7 5 -6 28 -100 51 -207 23
-107 45 -198 49 -201 4 -4 24 -11 45 -14 29 -6 37 -4 37 7 0 8 -16 88 -36 178
-20 89 -32 166 -27 170 4 4 29 11 55 14 39 6 48 4 56 -11 6 -10 26 -94 46
-188 20 -93 45 -190 56 -215 18 -43 100 -407 100 -448 0 -10 3 -22 7 -26 4 -4
8 -15 8 -24 0 -9 11 -60 23 -114 l23 -96 52 -4 c29 -2 54 -3 56 -1 3 2 -1 31
-8 64 -15 75 -8 86 56 85 46 -1 48 -2 59 -41 12 -46 30 -53 73 -30 26 13 29
18 21 39 -14 37 15 53 105 59 29 2 30 5 36 57 4 30 12 68 18 84 11 27 9 32
-20 60 -18 17 -44 58 -60 91 -34 74 -35 53 -5 -93 l24 -113 -25 -10 c-13 -5
-30 -9 -37 -9 -8 0 -20 -7 -27 -16 -12 -14 -7 -15 46 -10 l60 6 -60 -20 c-83
-27 -85 -27 -85 23 0 23 -28 175 -62 337 -52 245 -67 304 -94 350 -33 58 -77
110 -92 110 -5 0 6 -66 24 -147 30 -135 31 -149 16 -160 -9 -7 -23 -13 -32
-13 -9 0 -25 -7 -36 -16 -18 -14 -14 -15 41 -9 33 4 57 4 54 1 -10 -10 -120
-37 -129 -31 -5 3 -9 22 -8 43 0 37 -44 262 -62 316 -12 35 1 56 35 56 27 0
53 26 33 32 -7 3 -26 1 -43 -4 -51 -14 -55 -11 -55 35 0 23 -18 123 -40 221
-30 134 -37 183 -29 193 7 7 32 13 59 13 l48 0 20 -87 c11 -49 28 -130 38
-180 10 -53 23 -93 29 -93 16 0 32 60 39 145 6 61 -1 103 -53 340 -44 203 -56
273 -47 281 6 6 30 14 54 17 35 4 44 2 53 -14 6 -11 26 -93 45 -181 19 -89 36
-163 37 -165 2 -1 20 20 40 47 39 52 43 72 27 116 -7 18 -7 30 0 39 13 15 101
26 116 14 6 -5 27 -2 53 8 l43 17 -6 46 c-3 26 -13 73 -21 105 -12 43 -13 61
-4 71 14 17 83 18 97 2 5 -7 17 -49 26 -92 9 -44 18 -81 20 -83 7 -7 156 70
156 81 0 6 -7 38 -15 71 -22 94 -21 98 21 90 20 -3 46 -10 59 -15z m-715 -51
c0 -24 -5 -28 -40 -34 -67 -11 -62 -29 6 -21 68 8 63 -5 -8 -23 -82 -20 -83
-19 -84 53 l0 64 50 9 c58 10 76 -1 76 -48z m573 1 c22 -17 53 -87 44 -96 -8
-8 -54 25 -63 46 -33 70 -27 86 19 50z m-781 -75 l15 -75 -38 -10 c-62 -17
-58 -31 8 -25 l58 5 -65 -20 c-75 -22 -95 -20 -87 13 3 12 0 51 -8 87 -7 36
-11 67 -8 70 6 7 74 28 94 29 12 1 20 -17 31 -74z m1133 55 c15 -6 8 -9 -27
-9 -27 -1 -48 4 -48 9 0 12 47 12 75 0z m197 -48 c43 -19 47 -24 53 -66 6 -38
18 -56 71 -111 35 -36 67 -65 72 -65 5 0 17 -9 27 -20 16 -18 31 -20 129 -20
130 0 183 -18 216 -72 11 -18 36 -44 56 -58 20 -14 43 -35 51 -47 14 -21 13
-21 -27 -16 -25 4 -45 2 -49 -5 -3 -5 -1 -77 4 -159 l10 -148 52 -6 c29 -4 67
-16 85 -27 38 -24 84 -70 77 -77 -5 -4 -47 2 -169 25 -38 7 -48 6 -66 -11 -33
-31 -45 -22 -22 17 21 35 21 39 9 233 -13 221 -20 257 -57 292 -25 23 -31 24
-203 27 l-178 3 -29 30 c-30 31 -24 37 16 14 32 -18 40 -18 40 0 0 27 -80 103
-125 121 -31 11 -64 15 -110 12 -36 -2 -65 -3 -65 -2 0 22 16 33 38 27 25 -6
25 -5 19 38 -3 24 -9 59 -13 77 -7 37 -12 37 88 -6z m-1582 -41 c0 -14 -10
-21 -35 -25 -31 -6 -53 -22 -44 -31 2 -2 28 1 58 7 72 13 75 4 4 -15 -32 -9
-68 -19 -80 -22 -21 -7 -23 -4 -23 28 0 32 4 36 48 55 60 26 72 26 72 3z
m1815 -76 c22 -13 58 -42 80 -65 38 -41 39 -42 13 -36 -75 18 -188 94 -188
128 0 15 47 2 95 -27z m-558 -19 l28 -25 -36 2 c-21 1 -35 5 -33 9 3 4 -12 6
-33 5 -21 -2 -56 0 -78 3 -39 6 -39 7 -15 18 14 6 51 11 82 11 46 1 62 -3 85
-23z m-1428 -104 c11 -56 21 -109 21 -116 0 -8 -20 -19 -45 -25 -55 -14 -61
-35 -7 -26 20 4 46 9 57 12 13 4 17 2 10 -5 -14 -14 -124 -44 -135 -37 -5 3
-7 18 -4 34 5 24 -18 169 -33 207 -5 13 99 77 108 66 3 -4 16 -53 28 -110z
m189 86 c8 -11 142 -610 142 -638 0 -4 -19 -11 -42 -16 -23 -5 -43 -15 -46
-23 -4 -13 22 -11 81 5 9 3 17 1 17 -4 0 -8 -74 -31 -115 -35 -16 -2 -20 3
-18 28 1 16 -27 167 -64 335 -36 168 -66 314 -67 325 -1 15 7 21 34 26 57 10
67 10 78 -3z m292 -123 c21 -92 20 -105 -9 -105 -9 0 -26 -7 -37 -15 -17 -13
-15 -14 29 -8 63 8 60 -2 -7 -21 -73 -21 -76 -21 -76 15 0 17 -9 72 -21 121
-11 49 -18 95 -15 103 6 17 86 24 104 9 7 -6 22 -51 32 -99z m745 64 c5 -5
-11 -9 -44 -9 -29 0 -50 -4 -47 -9 4 -5 -2 -7 -12 -5 -26 7 -115 -36 -167 -82
-25 -22 -26 -24 -5 -12 14 8 36 21 50 29 13 8 30 20 38 27 7 6 22 12 32 12 37
0 29 -18 -17 -46 -102 -59 -235 -184 -226 -211 3 -7 0 -13 -5 -13 -16 0 -71
-139 -87 -220 -9 -43 -42 -110 -54 -110 -5 0 -1 21 9 48 10 26 28 97 39 157
42 232 175 403 349 451 48 14 129 10 147 -7z m468 -13 c68 -31 117 -73 173
-150 41 -56 82 -151 71 -163 -3 -2 -13 10 -22 29 -10 18 -39 52 -66 76 -27 24
-49 50 -49 58 0 12 -3 12 -20 2 -28 -18 -25 -35 10 -65 31 -26 70 -91 70 -116
0 -19 36 -54 103 -102 32 -22 57 -41 57 -42 0 -2 -52 -3 -115 -3 -77 0 -115 4
-115 11 0 6 7 8 16 5 17 -7 78 16 89 33 3 6 3 10 -2 9 -5 -2 -26 17 -48 42
-95 107 -226 231 -238 223 -7 -4 -22 -6 -35 -4 -21 2 -22 0 -13 -18 6 -11 16
-23 23 -27 7 -4 8 -3 4 4 -4 7 -1 12 8 12 9 0 16 -2 16 -4 0 -2 3 -12 7 -22 4
-11 3 -15 -5 -11 -6 4 -12 -1 -14 -10 -3 -16 -7 -15 -29 7 -30 29 -89 39 -89
14 0 -29 78 -130 132 -171 64 -49 85 -60 135 -73 l38 -10 -41 4 c-55 5 -255
103 -298 146 -6 6 -16 10 -24 10 -11 0 -13 -9 -8 -37 11 -65 11 -76 1 -79 -10
-4 -43 24 -71 61 -15 19 -15 19 -11 -5 3 -14 10 -40 16 -59 l11 -35 -36 35
c-55 53 -94 141 -94 211 0 71 10 92 53 114 39 20 74 54 55 54 -7 1 -2 7 12 15
14 8 51 14 82 15 50 0 62 -4 92 -30 19 -17 37 -27 40 -22 3 5 21 8 41 5 28 -3
35 0 35 14 0 15 2 16 10 3 8 -12 10 -11 10 5 0 15 -10 25 -35 34 -19 7 -38 10
-42 8 -5 -3 -14 1 -21 9 -22 24 68 17 131 -10z m-1903 -29 c0 -2 14 -68 30
-147 32 -149 31 -159 -11 -160 -8 0 -24 -7 -35 -16 -18 -14 -14 -15 41 -9 71
8 68 -1 -6 -21 -79 -20 -79 -20 -79 34 0 26 -9 85 -20 132 -28 123 -27 130 23
162 39 26 57 33 57 25z m1360 -17 c-8 -5 -19 -10 -25 -10 -5 0 -3 5 5 10 8 5
20 10 25 10 6 0 3 -5 -5 -10z m1000 -85 c-9 -11 -35 -15 -105 -15 -95 0 -125
5 -125 21 0 5 55 9 121 9 107 0 120 -2 109 -15z m-2550 -60 c-19 -19 -38 -35
-44 -35 -5 0 5 16 24 35 19 19 38 35 44 35 5 0 -5 -16 -24 -35z m81 -111 c0
-38 -6 -85 -14 -103 l-14 -34 -13 38 c-18 54 -16 130 5 161 25 38 36 18 36
-62z m358 63 c14 -17 63 -257 57 -274 -3 -7 -16 -13 -29 -13 -13 0 -32 -7 -43
-16 -18 -14 -14 -15 41 -9 37 3 54 2 45 -3 -23 -14 -120 -35 -128 -28 -3 4 -5
21 -4 39 2 29 -37 227 -53 268 -10 26 10 37 91 48 6 0 17 -5 23 -12z m1011
-37 c0 -6 -15 -25 -32 -43 -18 -18 -32 -31 -31 -29 4 9 -23 30 -32 25 -5 -3 1
5 15 17 39 33 80 49 80 30z m-1465 -46 c-7 -25 -25 -63 -39 -83 -34 -48 -95
-115 -101 -110 -7 8 20 101 43 145 22 44 74 94 97 94 12 0 12 -7 0 -46z m2889
17 c28 -18 76 -72 76 -85 0 -11 -115 45 -135 65 -17 17 -18 21 -5 29 21 14 29
13 64 -9z m-1268 -83 c10 -23 36 -64 57 -90 20 -27 32 -48 25 -48 -7 0 -30 -5
-51 -11 -31 -8 -38 -14 -35 -32 3 -19 11 -23 58 -28 l55 -6 -67 -1 c-99 -3
-118 -13 -118 -62 0 -36 -3 -40 -24 -40 -18 0 -26 7 -31 27 -9 38 -23 53 -51
53 -12 0 -25 4 -29 9 -7 12 171 270 186 271 3 0 15 -19 25 -42z m-286 4 c0 -4
-4 -12 -9 -17 -14 -15 -63 -173 -57 -184 7 -11 -91 -117 -100 -108 -4 4 2 17
14 30 20 21 71 125 87 178 21 68 65 136 65 101z m-1044 -56 c22 -90 82 -382
78 -387 -2 -3 -24 -12 -49 -19 -24 -7 -42 -17 -39 -22 5 -8 39 -5 87 8 9 3 17
1 17 -4 0 -5 -28 -17 -62 -25 -69 -18 -80 -12 -72 33 5 25 -58 344 -77 389
-15 35 5 51 62 51 43 0 49 -3 55 -24z m-490 -38 c-4 -13 -10 -46 -15 -75 -6
-42 -16 -61 -52 -100 -24 -26 -57 -59 -73 -72 l-29 -25 7 40 c11 62 60 158
106 208 47 50 66 59 56 24z m3119 -9 c24 -11 50 -28 57 -36 11 -14 8 -15 -22
-8 -36 8 -130 51 -130 60 0 12 54 3 95 -16z m-1069 -14 c10 -8 14 -15 8 -15
-5 0 -19 7 -30 15 -10 8 -14 15 -8 15 5 0 19 -7 30 -15z m-1891 -131 c-38 -36
-78 -70 -88 -75 -17 -10 -17 -9 -3 18 35 63 103 123 140 123 16 -1 5 -16 -49
-66z m2216 56 c27 -15 49 -63 49 -109 0 -48 -43 -103 -95 -122 -26 -10 -35
-21 -45 -52 -20 -67 -160 -201 -186 -178 -5 5 -27 13 -49 19 -22 6 -65 18 -95
27 -74 21 -187 22 -227 1 -17 -8 -40 -27 -50 -42 l-19 -26 -32 27 c-34 29 -62
73 -62 100 0 11 11 15 48 15 71 1 102 34 102 109 0 36 3 41 24 41 19 0 26 -8
36 -45 8 -29 25 -56 47 -75 31 -27 40 -30 104 -30 125 0 179 44 179 147 0 48
2 52 31 62 17 6 35 8 40 6 6 -5 33 -83 55 -164 7 -23 30 5 44 53 8 30 10 71 5
126 -6 70 -5 84 10 101 20 21 56 25 86 9z m913 -21 c26 -30 56 -91 56 -111 0
-6 -7 -7 -16 -4 -47 18 -121 105 -96 114 7 2 12 10 12 18 0 23 16 16 44 -17z
m-2900 -97 c7 -50 -4 -49 -28 2 -17 35 -22 97 -8 110 8 9 25 -46 36 -112z
m2210 101 c11 -28 -5 -263 -20 -299 -8 -18 -14 -64 -14 -101 0 -66 -11 -105
-26 -90 -8 7 -8 39 -1 275 3 79 7 145 10 148 3 3 2 17 -2 32 -11 41 39 73 53
35z m-595 3 c-2 -2 -17 -6 -34 -10 -22 -5 -26 -4 -15 4 14 9 59 15 49 6z m111
-46 c0 -5 -9 -10 -20 -10 -11 0 -20 5 -20 10 0 6 9 10 20 10 11 0 20 -4 20
-10z m-268 -80 c4 -76 28 -122 66 -128 43 -7 53 92 17 162 -8 16 -15 30 -15
33 0 2 24 3 52 1 l53 -3 12 -50 c28 -121 10 -162 -74 -172 -100 -11 -122 8
-147 128 -15 74 -11 99 19 99 9 0 14 -22 17 -70z m-1616 13 c-55 -76 -103
-129 -112 -121 -13 14 50 121 85 145 55 37 65 28 27 -24z m102 -38 c5 -27 7
-75 3 -105 l-6 -55 -17 41 c-26 63 -31 107 -18 154 14 51 22 43 38 -35z m1321
-18 c18 -94 11 -111 -46 -115 -29 -2 -44 2 -57 17 -24 26 -51 130 -37 144 7 7
12 -3 17 -32 8 -48 43 -106 64 -106 29 0 35 50 13 115 l-20 61 26 -3 c24 -3
27 -9 40 -81z m848 67 c-3 -3 -12 -4 -19 -1 -8 3 -5 6 6 6 11 1 17 -2 13 -5z
m475 -25 c61 -13 108 -35 108 -50 0 -14 -50 -7 -108 15 -24 9 -77 19 -118 23
-41 3 -77 10 -80 14 -8 13 136 11 198 -2z m158 -6 c17 -12 25 -13 28 -5 6 18
51 14 97 -8 41 -20 93 -66 84 -75 -8 -8 -108 22 -144 44 -41 24 -42 20 -11
-34 15 -27 31 -41 47 -43 54 -6 72 -15 116 -55 46 -42 99 -115 90 -124 -9 -8
-151 77 -178 108 -34 37 -42 37 -34 -3 20 -100 23 -105 63 -113 43 -8 122 -51
122 -67 0 -10 -94 -4 -127 9 -9 4 -13 -5 -12 -33 1 -56 8 -67 74 -117 63 -47
132 -124 120 -135 -5 -5 -46 7 -153 46 -11 4 -12 -23 -7 -149 4 -85 11 -174
16 -198 11 -48 5 -62 -15 -40 -9 10 -17 74 -25 213 -25 424 -93 711 -181 763
-28 16 -31 33 -7 33 7 0 23 -8 37 -17z m-1729 -30 c0 -11 3 -13 6 -5 9 23 23
12 23 -18 0 -17 5 -30 13 -30 9 0 9 -2 -1 -9 -11 -7 -11 -9 0 -13 7 -3 31 -47
53 -98 23 -52 60 -116 87 -148 26 -31 48 -64 48 -72 0 -8 9 -21 20 -28 12 -7
18 -18 14 -24 -4 -6 -3 -8 3 -5 6 4 20 -4 33 -18 12 -13 35 -29 51 -35 32 -14
37 -36 14 -66 -8 -10 -15 -27 -15 -36 0 -44 -39 -6 -74 73 -17 39 -41 70 -80
104 -54 46 -57 51 -88 152 -28 93 -38 111 -80 155 -26 27 -48 56 -48 63 0 7
-3 27 -6 44 -5 24 -3 31 10 31 9 0 16 -8 17 -17z m-1643 -133 c-22 -53 -87
-135 -87 -110 -1 40 75 160 100 160 4 0 -1 -22 -13 -50z m381 -71 c172 -30
464 -83 730 -133 73 -14 136 -28 139 -31 12 -12 210 -960 202 -969 -11 -11 -8
-22 -115 484 -53 250 -98 456 -100 458 -2 2 -12 -1 -23 -7 -29 -16 -39 -14
-16 3 16 12 16 15 4 20 -30 10 -302 45 -315 40 -8 -3 -152 19 -322 50 -169 30
-342 61 -383 69 l-75 13 30 17 c40 22 42 22 244 -14z m-104 -69 c94 -16 256
-45 360 -65 105 -20 251 -47 325 -61 154 -28 170 -32 170 -44 0 -20 -56 -14
-297 30 -452 85 -651 120 -674 120 -25 0 -29 27 34 -285 59 -290 60 -298 48
-291 -5 4 -26 77 -46 164 -76 324 -68 234 14 -155 l56 -268 120 -30 c66 -16
113 -31 105 -33 -15 -3 -236 51 -245 59 -2 3 -45 198 -95 434 -50 237 -93 438
-96 449 -5 15 -2 17 23 12 15 -3 105 -19 198 -36z m2244 -19 c16 -33 21 -56
16 -72 -21 -68 -106 -134 -186 -145 -34 -4 -51 0 -79 17 l-34 21 24 20 c90 70
175 145 197 174 14 19 29 34 32 34 4 0 18 -22 30 -49z m201 -60 c87 -36 140
-71 187 -126 35 -40 153 -267 153 -293 0 -8 -8 -21 -17 -28 -24 -18 -130 -74
-140 -74 -4 0 17 14 47 31 97 53 96 50 47 160 -83 184 -147 257 -281 320 -97
45 -95 50 4 10z m745 -127 c8 -54 17 -162 20 -239 5 -154 -4 -117 -24 100 -6
66 -14 149 -17 185 -10 97 4 68 21 -46z m190 56 c40 -63 34 -73 -21 -39 -30
18 -54 46 -54 63 0 4 21 11 42 15 4 0 19 -17 33 -39z m-3664 -3 c-13 -54 -42
-106 -87 -155 l-43 -47 -1 36 c-1 86 70 197 126 199 8 0 10 -10 5 -33z m1573
14 c12 -19 84 -376 78 -382 -4 -4 -24 -12 -44 -19 -47 -14 -51 -34 -5 -25 17
4 40 9 50 11 9 3 17 1 17 -4 0 -11 -120 -43 -131 -36 -4 2 -8 26 -8 52 1 26
-16 119 -35 206 -39 171 -41 193 -26 198 26 8 99 8 104 -1z m-1510 -177 c9
-24 -11 -44 -79 -76 -58 -27 -85 -34 -85 -22 0 16 63 83 92 97 42 21 64 21 72
1z m2112 -75 c16 -67 113 -524 117 -548 4 -24 -20 -23 -26 1 -29 132 -117 581
-117 599 0 36 10 16 26 -52z m1512 6 c13 -5 17 -45 3 -45 -18 0 -111 43 -111
52 0 8 74 3 108 -7z m-1671 -81 c-7 -26 -17 -43 -20 -37 -7 10 23 97 30 89 2
-2 -2 -25 -10 -52z m730 -71 c21 -57 41 -94 51 -96 13 -4 11 -5 -4 -6 -22 -1
-24 3 -78 147 -9 23 -16 50 -15 60 0 13 2 14 6 2 3 -8 21 -56 40 -107z m-2717
96 c0 -24 -107 -129 -132 -129 -16 0 31 77 67 108 36 32 65 41 65 21z m3629
-45 c29 -26 50 -49 47 -51 -6 -7 -97 35 -118 54 -10 9 -18 22 -18 30 0 26 39
12 89 -33z m-3021 20 c45 -9 82 -20 82 -25 0 -15 -38 -20 -81 -10 -24 6 -58
11 -75 11 -23 0 -33 5 -37 20 -6 25 2 25 111 4z m1 -70 c3 -2 -3 -12 -11 -21
-17 -16 -61 -20 -100 -7 l-22 7 24 19 c19 16 33 18 64 13 22 -3 42 -8 45 -11z
m-519 -47 c0 -33 -39 -85 -52 -71 -6 5 14 73 27 95 13 20 25 8 25 -24z m-89
-18 c-13 -38 -58 -99 -72 -99 -13 0 -3 53 18 93 12 25 51 51 62 41 2 -1 -2
-17 -8 -35z m2100 -44 c42 -9 45 -26 16 -87 -31 -65 -43 -79 -82 -101 -32 -18
-297 -87 -333 -87 -15 0 -22 -8 -27 -30 -8 -38 -43 -65 -110 -84 -70 -21 -82
-20 -90 5 -6 16 3 31 36 65 l43 44 -34 -10 c-19 -6 -40 -10 -47 -10 -14 0 -46
97 -37 112 3 5 36 9 72 8 63 -2 75 2 192 58 69 33 146 69 173 80 30 14 51 30
57 46 6 15 14 37 20 51 l9 25 56 -39 c31 -22 70 -43 86 -46z m961 4 c25 -74
32 -158 16 -189 -24 -45 -167 -144 -268 -184 -52 -21 -107 -47 -123 -58 -21
-15 -50 -22 -104 -26 l-74 -5 -26 -41 c-33 -54 -33 -53 -43 -36 -16 25 -11 70
11 101 26 37 11 38 -25 1 -20 -22 -28 -41 -30 -78 -5 -64 -5 -64 -15 -64 -13
0 -31 57 -31 96 0 26 8 41 35 65 41 38 39 47 -3 25 -39 -20 -62 -53 -62 -88 0
-35 -20 -80 -34 -75 -7 2 -10 28 -8 68 3 61 5 66 45 101 24 22 36 38 27 38
-28 0 -80 -40 -94 -72 l-14 -33 -1 36 c-2 71 64 104 241 120 68 6 130 17 138
23 8 7 63 42 121 79 92 58 113 67 153 67 61 0 51 16 -17 25 -28 4 -55 13 -59
19 -19 28 -6 44 49 67 31 13 80 35 108 51 27 15 54 26 59 25 5 -2 18 -28 28
-58z m-2562 -6 c7 -32 38 -182 70 -333 32 -151 57 -277 54 -279 -13 -13 -27
40 -88 330 -71 340 -71 339 -57 339 5 0 15 -26 21 -57z m2360 37 c-8 -5 -19
-10 -25 -10 -5 0 -3 5 5 10 8 5 20 10 25 10 6 0 3 -5 -5 -10z m-43 -16 c-3 -3
-12 -4 -19 -1 -8 3 -5 6 6 6 11 1 17 -2 13 -5z m891 -57 c21 -58 31 -135 25
-186 -3 -28 -9 -51 -14 -51 -14 0 -59 104 -65 150 -6 46 15 120 33 120 5 0 14
-15 21 -33z m-3588 -48 c0 -28 -4 -39 -12 -37 -24 8 -22 78 2 78 5 0 10 -18
10 -41z m3371 21 c10 -6 19 -17 19 -24 0 -11 -6 -12 -28 -4 -24 9 -40 5 -122
-34 -52 -25 -135 -69 -185 -98 -49 -29 -102 -59 -117 -67 -32 -16 -35 -28 -12
-37 13 -5 14 -9 4 -21 -13 -16 -43 -18 -74 -6 -18 7 -18 8 5 30 47 46 206 144
333 207 135 67 145 70 177 54z m-3518 -19 c-7 -26 -49 -64 -65 -59 -9 3 -1 17
24 41 41 42 48 45 41 18z m133 -84 c3 -10 3 -21 0 -24 -10 -10 -46 29 -46 49
0 16 3 16 20 6 11 -7 23 -21 26 -31z m2064 13 c0 -5 -9 -10 -21 -10 -11 0 -17
5 -14 10 3 6 13 10 21 10 8 0 14 -4 14 -10z m1409 -37 c30 -37 72 -115 66
-122 -11 -11 -145 91 -145 111 0 10 32 48 41 48 4 0 21 -17 38 -37z m-3543 13
c10 -8 16 -17 12 -21 -8 -8 -85 13 -93 25 -10 16 59 12 81 -4z m-126 -46 c0
-5 -4 -10 -9 -10 -6 0 -13 5 -16 10 -3 6 1 10 9 10 9 0 16 -4 16 -10z m180 1
c0 -5 -7 -12 -16 -15 -14 -5 -15 -4 -4 9 14 17 20 19 20 6z m-135 -11 c3 -5
-1 -10 -10 -10 -9 0 -13 5 -10 10 3 6 8 10 10 10 2 0 7 -4 10 -10z m73 -32
c-10 -29 -147 -82 -165 -64 -2 2 13 14 34 27 67 43 139 63 131 37z m146 3 c6
-10 -37 -31 -64 -31 -29 0 -34 19 -8 29 30 12 65 13 72 2z m1856 -56 c95 -19
174 -36 176 -37 1 -2 -1 -27 -3 -55 -5 -47 -8 -52 -27 -48 -11 3 -118 25 -236
50 -118 25 -219 50 -224 55 -11 11 1 30 22 31 14 0 115 33 118 38 0 0 79 -15
174 -34z m-1816 10 c3 -8 1 -15 -3 -15 -5 0 -11 7 -15 15 -3 8 -1 15 3 15 5 0
11 -7 15 -15z m180 6 c3 -5 -1 -12 -10 -15 -20 -8 -29 -1 -19 13 8 13 22 14
29 2z m-354 -22 c0 -14 -59 -73 -66 -66 -8 7 23 64 38 70 21 9 28 8 28 -4z
m3518 -62 c2 -30 0 -63 -6 -73 -9 -15 -12 -12 -21 22 -12 44 -14 84 -5 109 11
28 27 -1 32 -58z m-3440 35 c4 -25 -13 -30 -22 -6 -9 25 -7 36 7 32 6 -3 13
-14 15 -26z m-178 -22 c0 -5 -5 -10 -11 -10 -5 0 -7 5 -4 10 3 6 8 10 11 10 2
0 4 -4 4 -10z m1865 -40 c7 -12 -12 -12 -40 0 -18 8 -17 9 7 9 15 1 30 -3 33
-9z m-1878 -30 c0 -16 -7 -32 -15 -35 -21 -8 -23 -2 -11 33 14 40 26 41 26 2z
m160 -59 c7 -35 11 -66 9 -68 -2 -2 -19 0 -37 5 -30 7 -35 14 -46 58 -18 80
-18 82 24 75 37 -6 37 -7 50 -70z m1803 69 c0 -5 -11 -10 -25 -10 -14 0 -25 5
-25 10 0 6 11 10 25 10 14 0 25 -4 25 -10z m70 -20 c0 -5 -12 -10 -26 -10 -14
0 -23 4 -19 10 3 6 15 10 26 10 10 0 19 -4 19 -10z m1666 -15 c3 -14 1 -46 -5
-71 -9 -36 -9 -55 4 -96 28 -95 19 -117 -67 -166 -23 -13 -40 -17 -44 -11 -7
13 -8 12 43 38 23 11 47 30 53 40 13 26 -5 113 -28 134 -9 8 -55 22 -102 31
-145 28 -132 22 -112 56 20 36 29 38 34 8 3 -19 14 -25 78 -39 41 -10 78 -15
82 -13 4 2 14 29 23 59 17 60 31 70 41 30z m-1876 5 c-20 -13 -33 -13 -25 0 3
6 14 10 23 10 15 0 15 -2 2 -10z m300 -4 c0 -2 -13 -6 -30 -8 -16 -3 -30 -1
-30 4 0 4 14 8 30 8 17 0 30 -2 30 -4z m-1135 -26 c94 -21 157 -42 148 -50 -7
-8 -52 2 -195 41 -21 5 -38 14 -38 20 0 6 8 8 18 5 9 -3 40 -10 67 -16z m725
10 c0 -5 -8 -10 -17 -10 -15 0 -16 2 -3 10 19 12 20 12 20 0z m480 0 c0 -5
-12 -10 -26 -10 -14 0 -23 4 -19 10 3 6 15 10 26 10 10 0 19 -4 19 -10z m-250
-10 c-20 -13 -33 -13 -25 0 3 6 14 10 23 10 15 0 15 -2 2 -10z m-1901 -32 c13
-36 2 -49 -30 -41 -21 6 -24 25 -9 54 15 27 26 24 39 -13z m1728 26 c-3 -3
-12 -4 -19 -1 -8 3 -5 6 6 6 11 1 17 -2 13 -5z m488 -4 c-28 -12 -47 -12 -40
0 3 6 18 10 33 9 24 0 25 -1 7 -9z m-238 -6 c-3 -3 -12 -4 -19 -1 -8 3 -5 6 6
6 11 1 17 -2 13 -5z m-470 -24 c39 -11 108 -28 154 -39 165 -39 464 -119 447
-120 -14 -1 -676 162 -703 173 -31 13 41 3 102 -14z m110 14 c-3 -3 -12 -4
-19 -1 -8 3 -5 6 6 6 11 1 17 -2 13 -5z m433 -4 c0 -5 -9 -10 -21 -10 -11 0
-17 5 -14 10 3 6 13 10 21 10 8 0 14 -4 14 -10z m-213 -6 c-3 -3 -12 -4 -19
-1 -8 3 -5 6 6 6 11 1 17 -2 13 -5z m68 -14 c-3 -5 -11 -10 -16 -10 -6 0 -7 5
-4 10 3 6 11 10 16 10 6 0 7 -4 4 -10z m210 0 c-27 -12 -43 -12 -25 0 8 5 22
9 30 9 10 0 8 -3 -5 -9z m-1530 -20 c3 -5 -11 -18 -32 -29 -26 -13 -33 -21
-23 -24 8 -3 39 -13 67 -22 29 -9 55 -21 58 -26 8 -12 5 -12 -88 12 -119 30
-120 32 -51 67 32 17 60 31 61 32 1 0 4 -4 8 -10z m1398 3 c-7 -2 -21 -2 -30
0 -10 3 -4 5 12 5 17 0 24 -2 18 -5z m214 1 c-3 -3 -12 -4 -19 -1 -8 3 -5 6 6
6 11 1 17 -2 13 -5z m-144 -21 c-7 -2 -19 -2 -25 0 -7 3 -2 5 12 5 14 0 19 -2
13 -5z m-140 -10 c-7 -2 -19 -2 -25 0 -7 3 -2 5 12 5 14 0 19 -2 13 -5z m222
-3 c-3 -5 -13 -10 -21 -10 -8 0 -12 5 -9 10 3 6 13 10 21 10 8 0 12 -4 9 -10z
m75 -10 c0 -5 -8 -10 -17 -10 -15 0 -16 2 -3 10 19 12 20 12 20 0z m-223 -6
c-3 -3 -12 -4 -19 -1 -8 3 -5 6 6 6 11 1 17 -2 13 -5z m-404 -56 c-2 -5 -8 -8
-14 -8 -11 0 -12 33 -2 44 8 8 23 -25 16 -36z m484 36 c-3 -3 -12 -4 -19 -1
-8 3 -5 6 6 6 11 1 17 -2 13 -5z m-561 -49 c18 -15 16 -15 -26 -9 -65 9 -85
23 -34 24 22 0 49 -7 60 -15z m164 0 c-35 -20 -62 -19 -36 0 11 8 29 15 40 15
19 -1 19 -2 -4 -15z m1840 -9 c0 -2 -9 -6 -20 -9 -11 -3 -18 -1 -14 4 5 9 34
13 34 5z m-2050 -31 c57 -29 72 -62 20 -42 -29 11 -93 67 -77 67 4 0 30 -11
57 -25z m130 4 c0 -23 -30 -79 -42 -79 -15 0 -8 63 9 82 21 24 33 23 33 -3z
m144 12 c7 -11 -28 -21 -69 -21 -29 1 -29 1 -11 15 22 16 72 20 80 6z m1686
-32 c0 -5 -4 -7 -10 -4 -5 3 -10 2 -10 -3 0 -5 -6 -9 -14 -9 -24 0 -76 -25
-76 -36 0 -7 -4 -7 -12 1 -14 14 -16 11 42 39 50 24 80 29 80 12z m-1752 -38
c10 -6 3 -10 -23 -15 -40 -8 -51 -4 -40 13 7 13 45 14 63 2z m1762 -18 c0 -8
-4 -11 -10 -8 -5 3 -10 1 -10 -4 0 -6 -5 -11 -11 -11 -8 0 -9 4 0 13 6 8 9 16
6 19 -3 2 2 5 10 5 8 0 15 -7 15 -14z m-1970 0 c0 -16 -45 -53 -64 -53 -19 1
-17 4 12 30 31 29 52 38 52 23z m1790 -11 c0 -4 -15 -13 -32 -20 -18 -7 -41
-18 -50 -23 -22 -11 -28 -11 -28 0 0 5 21 18 48 29 52 23 62 26 62 14z m-1750
-42 c-14 -34 -30 -40 -30 -11 0 20 29 56 38 47 2 -3 -1 -19 -8 -36z m170 10
c0 -5 -2 -10 -4 -10 -3 0 -8 5 -11 10 -3 6 -1 10 4 10 6 0 11 -4 11 -10z
m1590 -23 c0 -16 -13 -28 -50 -45 -27 -13 -55 -22 -62 -19 -7 3 -3 6 10 6 15
1 21 5 16 13 -4 7 -3 8 5 4 6 -4 14 0 17 8 3 9 15 16 26 16 10 0 18 6 17 13
-3 25 1 38 11 32 6 -3 10 -16 10 -28z m-1710 7 c0 -8 -4 -12 -10 -9 -5 3 -10
10 -10 16 0 5 5 9 10 9 6 0 10 -7 10 -16z m47 -16 c-3 -8 -6 -5 -6 6 -1 11 2
17 5 13 3 -3 4 -12 1 -19z m1503 -6 c0 -4 -15 -13 -32 -21 -18 -8 -60 -26 -93
-41 -33 -15 -67 -30 -75 -33 -8 -3 -33 -13 -55 -22 -86 -36 -11 10 106 65 123
58 149 67 149 52z m-1495 -42 c-3 -5 -14 -10 -23 -10 -15 0 -15 2 -2 10 20 13
33 13 25 0z m-58 -6 c-3 -3 -12 -4 -19 -1 -8 3 -5 6 6 6 11 1 17 -2 13 -5z
m-31 -25 c15 -5 23 -21 30 -63 10 -54 10 -56 -10 -50 -67 18 -75 25 -85 75 -6
28 -11 52 -11 55 0 5 42 -4 76 -17z m1590 -4 c-16 -9 -34 -14 -40 -11 -6 2 -3
5 7 5 10 1 15 6 12 11 -4 6 6 10 22 10 l28 0 -29 -15z m-69 -31 c-3 -3 -12 -4
-19 -1 -8 3 -5 6 6 6 11 1 17 -2 13 -5z m-2676 -22 c-7 -2 -18 1 -23 6 -8 8
-4 9 13 5 13 -4 18 -8 10 -11z m95 -24 c-9 -5 -23 -5 -32 0 -12 6 -7 9 16 9
23 0 28 -3 16 -9z m2289 -8 c-3 -5 -13 -10 -21 -10 -9 0 -12 -5 -8 -12 4 -6 3
-8 -4 -5 -5 4 -40 -6 -77 -23 -63 -28 -96 -38 -82 -24 8 8 179 83 190 84 5 0
5 -4 2 -10z m659 -40 c32 -12 56 -58 56 -106 0 -29 -7 -44 -37 -71 l-36 -35
18 -34 c15 -28 16 -36 5 -49 -29 -35 -53 -14 -117 105 -34 63 -62 121 -62 128
-1 12 112 72 136 72 6 0 23 -4 37 -10z m-630 -21 c-2 -4 -12 -9 -23 -12 -13
-3 -18 -1 -14 8 2 8 13 13 23 12 10 -1 17 -4 14 -8z m-1974 -29 c0 -5 -7 -7
-15 -4 -8 4 -15 8 -15 10 0 2 7 4 15 4 8 0 15 -4 15 -10z m45 -20 c3 -6 -1 -7
-9 -4 -18 7 -21 14 -7 14 6 0 13 -4 16 -10z m1665 5 c0 -5 -85 -45 -95 -45 -3
0 -3 5 0 10 12 19 95 50 95 35z m-1610 -15 c0 -5 -5 -10 -11 -10 -5 0 -7 5 -4
10 3 6 8 10 11 10 2 0 4 -4 4 -10z m1760 6 c0 -2 -9 -6 -20 -9 -11 -3 -18 -1
-14 4 5 9 34 13 34 5z m-1690 -26 l25 -8 -25 -1 c-14 0 -32 4 -40 9 -13 9 -13
10 0 9 8 -1 26 -5 40 -9z m86 -21 c7 -11 -27 -11 -45 0 -9 6 -5 9 13 9 15 0
29 -4 32 -9z m1451 -21 c-7 -4 -16 -8 -22 -8 -5 0 -3 5 5 10 8 5 11 10 7 10
-5 0 -5 5 -1 11 4 8 9 7 15 -2 5 -8 3 -17 -4 -21z m664 16 c22 -11 40 -36 65
-87 44 -91 44 -119 0 -163 -29 -29 -41 -34 -80 -34 -39 0 -49 4 -72 34 -58 72
-79 170 -48 215 16 22 66 50 92 51 7 0 27 -7 43 -16z m-851 -18 c0 -2 -7 -7
-16 -10 -8 -3 -12 -2 -9 4 6 10 25 14 25 6z m667 -191 c56 -135 57 -155 8
-155 -17 0 -27 10 -39 40 -17 42 -25 46 -56 30 -17 -9 -17 -12 -3 -49 20 -51
12 -73 -24 -69 -26 3 -32 12 -74 128 -26 68 -45 130 -42 137 7 18 43 27 56 14
7 -7 19 -31 28 -54 14 -34 21 -41 40 -39 12 1 25 4 27 7 3 2 -6 29 -18 60 -12
31 -21 57 -19 59 14 12 46 25 54 22 5 -1 33 -60 62 -131z m-852 105 c-3 -5
-12 -10 -18 -10 -7 0 -6 4 3 10 19 12 23 12 15 0z m40 -21 c8 -23 -8 -39 -35
-38 -13 0 -12 2 1 7 9 4 15 17 14 30 -2 28 11 29 20 1z m513 -76 c2 -14 -3
-23 -18 -28 -11 -4 -28 -17 -36 -31 -15 -21 -15 -28 0 -70 23 -69 41 -85 86
-78 32 5 40 3 49 -14 15 -28 -7 -44 -68 -50 -64 -6 -88 9 -117 74 -34 76 -40
124 -20 162 30 58 117 83 124 35z m-711 -29 c-3 -3 -12 -4 -19 -1 -8 3 -5 6 6
6 11 1 17 -2 13 -5z m-40 -10 c-3 -3 -12 -4 -19 -1 -8 3 -5 6 6 6 11 1 17 -2
13 -5z m551 -21 c-2 -23 -10 -29 -48 -40 -72 -21 -70 -19 -60 -50 9 -24 16
-28 48 -28 33 0 37 -3 37 -25 0 -19 -6 -26 -23 -28 -25 -4 -37 -24 -29 -46 5
-12 14 -12 62 0 44 12 60 12 71 3 19 -16 18 -36 -3 -47 -26 -14 -172 -46 -178
-40 -10 10 -66 252 -63 272 2 16 18 24 68 37 36 9 78 18 93 18 25 1 28 -2 25
-26z m-261 -75 c27 -28 57 -139 49 -186 -10 -65 -71 -100 -140 -81 -44 12 -64
44 -82 130 -12 60 -12 73 0 104 27 65 123 83 173 33z m-274 -28 c30 -24 41
-63 26 -91 -9 -17 -7 -25 9 -42 41 -46 32 -106 -19 -132 -14 -8 -56 -17 -92
-21 l-65 -7 -6 29 c-18 91 -36 258 -29 265 8 7 50 14 119 17 18 1 42 -6 57
-18z m-935 -26 c38 -25 47 -57 28 -95 -15 -30 -15 -36 -1 -65 19 -40 5 -86
-31 -103 -14 -6 -56 -11 -95 -11 -55 0 -71 3 -76 16 -7 19 12 259 23 275 9 15
122 2 152 -17z m676 9 c17 -58 55 -266 51 -274 -4 -5 -19 -9 -34 -9 -27 0 -29
3 -41 63 -16 88 -26 100 -39 49 -6 -23 -16 -60 -22 -83 -9 -36 -13 -40 -37
-37 -22 3 -31 14 -58 76 -33 77 -44 78 -44 2 0 -60 -15 -90 -46 -90 l-26 0 7
133 c8 154 10 164 36 172 24 8 59 -3 59 -18 1 -7 16 -43 34 -82 l32 -70 19 70
c24 93 38 115 75 115 19 0 30 -6 34 -17z m-387 -133 c49 -143 50 -164 11 -168
-22 -3 -30 2 -38 22 -8 23 -15 26 -59 26 -44 0 -49 -3 -55 -25 -5 -18 -13 -25
-32 -25 -13 0 -27 6 -30 14 -3 8 11 74 32 146 40 141 50 154 104 141 22 -6 30
-23 67 -131z"/>
<path d="M1810 3100 c0 -5 7 -10 15 -10 8 0 15 5 15 10 0 6 -7 10 -15 10 -8 0
-15 -4 -15 -10z"/>
<path d="M2970 3721 c0 -5 9 -13 20 -16 11 -3 20 -11 20 -16 0 -6 -4 -7 -10
-4 -5 3 -10 2 -10 -4 0 -5 14 -8 31 -6 25 3 28 1 19 -11 -15 -17 -6 -44 14
-44 7 0 16 9 19 20 4 15 -4 27 -27 45 -18 14 -38 25 -44 25 -7 0 -12 5 -12 10
0 6 -4 10 -10 10 -5 0 -10 -4 -10 -9z"/>
<path d="M2971 3684 c0 -11 3 -14 6 -6 3 7 2 16 -1 19 -3 4 -6 -2 -5 -13z"/>
<path d="M2954 3659 c2 -21 12 -45 24 -57 28 -28 45 -28 37 -1 -4 12 -8 29 -9
38 -2 9 -12 17 -24 19 -11 2 -23 11 -25 20 -3 9 -4 1 -3 -19z"/>
<path d="M3100 3491 c0 -6 4 -13 10 -16 6 -3 7 1 4 9 -7 18 -14 21 -14 7z"/>
<path d="M2990 3111 c-15 -29 -12 -67 6 -85 23 -24 26 -20 19 23 -5 28 -2 42
9 54 21 21 20 27 -4 27 -10 0 -24 -9 -30 -19z"/>
<path d="M560 2581 c0 -12 5 -21 10 -21 6 0 10 6 10 14 0 8 -4 18 -10 21 -5 3
-10 -3 -10 -14z"/>
<path d="M3761 951 c-12 -8 -12 -14 -1 -40 14 -34 27 -38 55 -17 17 12 18 18
7 40 -12 26 -36 33 -61 17z"/>
<path d="M3527 833 c-22 -22 15 -133 51 -152 16 -9 24 -7 36 5 20 20 20 23 -4
81 -26 61 -61 89 -83 66z"/>
<path d="M2552 503 c-12 -23 10 -132 29 -144 20 -13 35 -11 49 6 11 13 11 27
0 73 -7 31 -17 63 -22 70 -15 18 -46 15 -56 -5z"/>
<path d="M2297 483 c-13 -3 -17 -12 -15 -31 2 -22 7 -26 28 -23 31 4 42 19 29
43 -10 19 -11 19 -42 11z"/>
<path d="M2313 363 c-7 -2 -13 -16 -13 -29 0 -22 4 -25 32 -22 23 2 34 9 36
22 6 27 -23 42 -55 29z"/>
<path d="M1356 462 c-3 -3 -6 -16 -6 -29 0 -19 5 -23 29 -23 29 0 45 18 33 37
-8 12 -49 23 -56 15z"/>
<path d="M1347 343 c-4 -3 -7 -17 -7 -30 0 -20 5 -23 35 -23 30 0 35 3 35 24
0 29 -43 49 -63 29z"/>
<path d="M1647 413 c-3 -5 -9 -29 -13 -51 -6 -40 -5 -42 20 -42 18 0 26 5 25
18 -1 30 -25 86 -32 75z"/>
<path d="M3275 1590 c-65 -16 -132 -55 -180 -105 -49 -50 -71 -63 -260 -150
-38 -18 -92 -49 -118 -68 -43 -31 -52 -34 -85 -26 -63 15 -76 11 -183 -57 -57
-36 -114 -70 -126 -75 -18 -7 -23 -16 -23 -43 0 -39 -7 -36 160 -75 l85 -20
52 32 c140 87 202 133 203 150 0 31 -19 57 -43 57 -12 0 -29 5 -37 10 -13 9
-13 11 0 19 8 5 17 8 22 5 8 -5 92 29 216 87 45 21 84 39 86 39 2 0 7 -11 10
-24 18 -73 180 -96 286 -42 94 48 168 96 174 112 3 9 -1 40 -10 69 -17 61 -50
89 -119 100 -22 3 -49 8 -60 9 -11 2 -33 0 -50 -4z m120 -40 c14 -6 1 -9 -45
-9 -36 -1 -80 -5 -98 -10 -37 -11 -43 1 -9 17 26 13 124 14 152 2z m-204 -68
c-14 -27 -41 -48 -41 -33 0 22 20 51 36 51 11 0 12 -4 5 -18z m-84 -60 c-12
-47 -5 -69 25 -82 16 -6 18 -9 6 -9 -40 -2 -63 63 -38 110 16 29 18 23 7 -19z
m-460 -217 c37 -9 74 -18 82 -21 8 -2 -24 -31 -79 -71 l-93 -66 -94 18 c-52
10 -96 21 -98 25 -2 3 24 23 58 44 34 22 78 49 97 62 43 28 42 28 127 9z m103
-59 c-33 -31 -182 -127 -188 -121 -4 4 0 10 8 15 8 5 51 34 95 64 74 52 118
74 85 42z m-335 -85 c22 -6 59 -15 83 -21 43 -11 58 -30 22 -30 -20 0 -181 39
-189 45 -9 9 13 25 27 21 10 -3 35 -9 57 -15z"/>
<path d="M2703 979 c27 -16 75 -28 82 -21 3 3 -14 12 -37 19 -52 15 -69 16
-45 2z"/>
</g>
</svg>
